<svg xmlns="http://www.w3.org/2000/svg" viewBox="0 0 1200 600">
  <defs>
    <linearGradient id="addedGrad" x1="0%" y1="0%" x2="0%" y2="100%">
      <stop offset="0%" style="stop-color:#22c55e;stop-opacity:0.8"/>
      <stop offset="100%" style="stop-color:#16a34a;stop-opacity:0.6"/>
    </linearGradient>
    <linearGradient id="deletedGrad" x1="0%" y1="0%" x2="0%" y2="100%">
      <stop offset="0%" style="stop-color:#ef4444;stop-opacity:0.8"/>
      <stop offset="100%" style="stop-color:#dc2626;stop-opacity:0.6"/>
    </linearGradient>
    <linearGradient id="bgGrad" x1="0%" y1="0%" x2="0%" y2="100%">
      <stop offset="0%" style="stop-color:#1e293b"/>
      <stop offset="100%" style="stop-color:#0f172a"/>
    </linearGradient>
    <filter id="glow">
      <feGaussianBlur stdDeviation="2" result="coloredBlur"/>
      <feMerge>
        <feMergeNode in="coloredBlur"/>
        <feMergeNode in="SourceGraphic"/>
      </feMerge>
    </filter>
  </defs>

  <!-- Background -->
  <rect width="1200" height="600" fill="url(#bgGrad)"/>

  <!-- Title -->
  <text x="600" y="40" text-anchor="middle" fill="#f8fafc" font-family="system-ui, -apple-system, sans-serif" font-size="24" font-weight="bold">
    Dexterity Git Activity - Lines of Code Per Day (Dec 2025)
  </text>
  <text x="600" y="65" text-anchor="middle" fill="#94a3b8" font-family="system-ui, sans-serif" font-size="14">
    Log scale visualization | Green = Added | Red = Deleted
  </text>

  <!-- Chart area -->
  <g transform="translate(80, 100)">
    <!-- Grid lines -->
    <g stroke="#334155" stroke-width="1" stroke-dasharray="4,4">
      <line x1="0" y1="0" x2="1040" y2="0"/>
      <line x1="0" y1="80" x2="1040" y2="80"/>
      <line x1="0" y1="160" x2="1040" y2="160"/>
      <line x1="0" y1="240" x2="1040" y2="240"/>
      <line x1="0" y1="320" x2="1040" y2="320"/>
      <line x1="0" y1="400" x2="1040" y2="400"/>
    </g>

    <!-- Y-axis labels (log scale) -->
    <text x="-10" y="5" text-anchor="end" fill="#94a3b8" font-size="11">10M</text>
    <text x="-10" y="85" text-anchor="end" fill="#94a3b8" font-size="11">1M</text>
    <text x="-10" y="165" text-anchor="end" fill="#94a3b8" font-size="11">100K</text>
    <text x="-10" y="245" text-anchor="end" fill="#94a3b8" font-size="11">10K</text>
    <text x="-10" y="325" text-anchor="end" fill="#94a3b8" font-size="11">1K</text>
    <text x="-10" y="405" text-anchor="end" fill="#94a3b8" font-size="11">100</text>

    <!-- Bars - Dec 11: 19301 added, 728 deleted -->
    <g transform="translate(0, 0)">
      <rect x="5" y="220" width="30" height="180" fill="url(#addedGrad)" rx="3"/>
      <rect x="37" y="370" width="30" height="30" fill="url(#deletedGrad)" rx="3"/>
      <text x="36" y="430" text-anchor="middle" fill="#64748b" font-size="9">Dec 11</text>
      <text x="36" y="210" text-anchor="middle" fill="#22c55e" font-size="9" font-weight="bold">19K</text>
    </g>

    <!-- Dec 12: 45546 added, 3972 deleted -->
    <g transform="translate(75, 0)">
      <rect x="5" y="180" width="30" height="220" fill="url(#addedGrad)" rx="3"/>
      <rect x="37" y="320" width="30" height="80" fill="url(#deletedGrad)" rx="3"/>
      <text x="36" y="430" text-anchor="middle" fill="#64748b" font-size="9">Dec 12</text>
      <text x="36" y="170" text-anchor="middle" fill="#22c55e" font-size="9" font-weight="bold">46K</text>
    </g>

    <!-- Dec 13: 5588 added, 1035 deleted -->
    <g transform="translate(150, 0)">
      <rect x="5" y="260" width="30" height="140" fill="url(#addedGrad)" rx="3"/>
      <rect x="37" y="340" width="30" height="60" fill="url(#deletedGrad)" rx="3"/>
      <text x="36" y="430" text-anchor="middle" fill="#64748b" font-size="9">Dec 13</text>
      <text x="36" y="250" text-anchor="middle" fill="#22c55e" font-size="9" font-weight="bold">5.6K</text>
    </g>

    <!-- Dec 14: 5919 added, 8549 deleted -->
    <g transform="translate(225, 0)">
      <rect x="5" y="260" width="30" height="140" fill="url(#addedGrad)" rx="3"/>
      <rect x="37" y="240" width="30" height="160" fill="url(#deletedGrad)" rx="3"/>
      <text x="36" y="430" text-anchor="middle" fill="#64748b" font-size="9">Dec 14</text>
      <text x="36" y="230" text-anchor="middle" fill="#ef4444" font-size="9" font-weight="bold">8.5K</text>
    </g>

    <!-- Dec 15: 20176 added, 14916 deleted -->
    <g transform="translate(300, 0)">
      <rect x="5" y="220" width="30" height="180" fill="url(#addedGrad)" rx="3"/>
      <rect x="37" y="230" width="30" height="170" fill="url(#deletedGrad)" rx="3"/>
      <text x="36" y="430" text-anchor="middle" fill="#64748b" font-size="9">Dec 15</text>
      <text x="36" y="210" text-anchor="middle" fill="#22c55e" font-size="9" font-weight="bold">20K</text>
    </g>

    <!-- Dec 16: 355235 added, 5669 deleted -->
    <g transform="translate(375, 0)">
      <rect x="5" y="100" width="30" height="300" fill="url(#addedGrad)" rx="3" filter="url(#glow)"/>
      <rect x="37" y="260" width="30" height="140" fill="url(#deletedGrad)" rx="3"/>
      <text x="36" y="430" text-anchor="middle" fill="#64748b" font-size="9">Dec 16</text>
      <text x="36" y="90" text-anchor="middle" fill="#22c55e" font-size="10" font-weight="bold">355K</text>
    </g>

    <!-- Dec 17: 4222844 added, 154818 deleted (MASSIVE) -->
    <g transform="translate(450, 0)">
      <rect x="5" y="20" width="30" height="380" fill="url(#addedGrad)" rx="3" filter="url(#glow)"/>
      <rect x="37" y="140" width="30" height="260" fill="url(#deletedGrad)" rx="3"/>
      <text x="36" y="430" text-anchor="middle" fill="#64748b" font-size="9">Dec 17</text>
      <text x="36" y="12" text-anchor="middle" fill="#22c55e" font-size="10" font-weight="bold">4.2M</text>
    </g>

    <!-- Dec 18: 1118 added, 1016654 deleted -->
    <g transform="translate(525, 0)">
      <rect x="5" y="340" width="30" height="60" fill="url(#addedGrad)" rx="3"/>
      <rect x="37" y="60" width="30" height="340" fill="url(#deletedGrad)" rx="3" filter="url(#glow)"/>
      <text x="36" y="430" text-anchor="middle" fill="#64748b" font-size="9">Dec 18</text>
      <text x="36" y="50" text-anchor="middle" fill="#ef4444" font-size="10" font-weight="bold">1M</text>
    </g>

    <!-- Dec 19: 9876 added, 2076 deleted -->
    <g transform="translate(600, 0)">
      <rect x="5" y="240" width="30" height="160" fill="url(#addedGrad)" rx="3"/>
      <rect x="37" y="330" width="30" height="70" fill="url(#deletedGrad)" rx="3"/>
      <text x="36" y="430" text-anchor="middle" fill="#64748b" font-size="9">Dec 19</text>
      <text x="36" y="230" text-anchor="middle" fill="#22c55e" font-size="9" font-weight="bold">9.9K</text>
    </g>

    <!-- Dec 20: 8880 added, 3035210 deleted -->
    <g transform="translate(675, 0)">
      <rect x="5" y="245" width="30" height="155" fill="url(#addedGrad)" rx="3"/>
      <rect x="37" y="30" width="30" height="370" fill="url(#deletedGrad)" rx="3" filter="url(#glow)"/>
      <text x="36" y="430" text-anchor="middle" fill="#64748b" font-size="9">Dec 20</text>
      <text x="36" y="22" text-anchor="middle" fill="#ef4444" font-size="10" font-weight="bold">3M</text>
    </g>

    <!-- Dec 21: 204829 added, 4360 deleted -->
    <g transform="translate(750, 0)">
      <rect x="5" y="120" width="30" height="280" fill="url(#addedGrad)" rx="3" filter="url(#glow)"/>
      <rect x="37" y="280" width="30" height="120" fill="url(#deletedGrad)" rx="3"/>
      <text x="36" y="430" text-anchor="middle" fill="#64748b" font-size="9">Dec 21</text>
      <text x="36" y="110" text-anchor="middle" fill="#22c55e" font-size="10" font-weight="bold">205K</text>
    </g>

    <!-- Dec 22: 15182 added, 1542 deleted -->
    <g transform="translate(825, 0)">
      <rect x="5" y="220" width="30" height="180" fill="url(#addedGrad)" rx="3"/>
      <rect x="37" y="340" width="30" height="60" fill="url(#deletedGrad)" rx="3"/>
      <text x="36" y="430" text-anchor="middle" fill="#64748b" font-size="9">Dec 22</text>
      <text x="36" y="210" text-anchor="middle" fill="#22c55e" font-size="9" font-weight="bold">15K</text>
    </g>

    <!-- Dec 23: 51027 added, 2887 deleted -->
    <g transform="translate(900, 0)">
      <rect x="5" y="175" width="30" height="225" fill="url(#addedGrad)" rx="3"/>
      <rect x="37" y="330" width="30" height="70" fill="url(#deletedGrad)" rx="3"/>
      <text x="36" y="430" text-anchor="middle" fill="#64748b" font-size="9">Dec 23</text>
      <text x="36" y="165" text-anchor="middle" fill="#22c55e" font-size="9" font-weight="bold">51K</text>
    </g>

    <!-- Dec 24: 29989 added, 24852 deleted -->
    <g transform="translate(975, 0)">
      <rect x="5" y="195" width="30" height="205" fill="url(#addedGrad)" rx="3"/>
      <rect x="37" y="200" width="30" height="200" fill="url(#deletedGrad)" rx="3"/>
      <text x="36" y="430" text-anchor="middle" fill="#64748b" font-size="9">Dec 24</text>
      <text x="36" y="185" text-anchor="middle" fill="#22c55e" font-size="9" font-weight="bold">30K</text>
    </g>
  </g>

  <!-- Legend -->
  <g transform="translate(900, 520)">
    <rect x="0" y="0" width="20" height="12" fill="url(#addedGrad)" rx="2"/>
    <text x="25" y="10" fill="#94a3b8" font-size="12">Lines Added</text>
    <rect x="120" y="0" width="20" height="12" fill="url(#deletedGrad)" rx="2"/>
    <text x="145" y="10" fill="#94a3b8" font-size="12">Lines Deleted</text>
  </g>

  <!-- Stats box -->
  <g transform="translate(80, 520)">
    <text fill="#f8fafc" font-size="13" font-weight="bold">Dec 2025 Stats:</text>
    <text x="130" y="0" fill="#22c55e" font-size="12">+4.8M added</text>
    <text x="250" y="0" fill="#ef4444" font-size="12">-4.3M deleted</text>
    <text x="370" y="0" fill="#60a5fa" font-size="12">~38K commits</text>
  </g>

  <!-- Watermark -->
  <text x="1180" y="590" text-anchor="end" fill="#475569" font-size="10" font-style="italic">
    Generated by Dexterity
  </text>
</svg>
